<mxfile host="Electron" agent="Mozilla/5.0 (Windows NT 10.0; Win64; x64) AppleWebKit/537.36 (KHTML, like Gecko) draw.io/27.0.9 Chrome/134.0.6998.205 Electron/35.4.0 Safari/537.36" version="27.0.9">
  <diagram name="Page-1" id="jnaqS5CSnJTUYgbvY__o">
    <mxGraphModel dx="2951" dy="1786" grid="1" gridSize="10" guides="1" tooltips="1" connect="1" arrows="1" fold="1" page="1" pageScale="1" pageWidth="2336" pageHeight="1654" math="0" shadow="0">
      <root>
        <mxCell id="0" />
        <mxCell id="1" parent="0" />
        <mxCell id="4GUXSq08M1K6atCKZU_I-6" style="edgeStyle=orthogonalEdgeStyle;rounded=0;orthogonalLoop=1;jettySize=auto;html=1;entryX=0;entryY=0.5;entryDx=0;entryDy=0;" parent="1" source="4GUXSq08M1K6atCKZU_I-1" target="4GUXSq08M1K6atCKZU_I-5" edge="1">
          <mxGeometry relative="1" as="geometry" />
        </mxCell>
        <mxCell id="4GUXSq08M1K6atCKZU_I-1" value="config.json&lt;br&gt;&lt;div style=&quot;text-align: left;&quot;&gt;&lt;br&gt;&lt;/div&gt;" style="shape=note;whiteSpace=wrap;html=1;backgroundOutline=1;darkOpacity=0.05;" parent="1" vertex="1">
          <mxGeometry x="2490" y="390" width="120" height="120" as="geometry" />
        </mxCell>
        <mxCell id="4GUXSq08M1K6atCKZU_I-2" value="config_apply.log" style="shape=note;whiteSpace=wrap;html=1;backgroundOutline=1;darkOpacity=0.05;" parent="1" vertex="1">
          <mxGeometry x="2930" y="390" width="120" height="120" as="geometry" />
        </mxCell>
        <mxCell id="4GUXSq08M1K6atCKZU_I-3" value="crontab_file" style="shape=note;whiteSpace=wrap;html=1;backgroundOutline=1;darkOpacity=0.05;" parent="1" vertex="1">
          <mxGeometry x="650" y="1320" width="120" height="120" as="geometry" />
        </mxCell>
        <mxCell id="4GUXSq08M1K6atCKZU_I-4" value="envfile" style="shape=note;whiteSpace=wrap;html=1;backgroundOutline=1;darkOpacity=0.05;" parent="1" vertex="1">
          <mxGeometry x="470" y="1320" width="120" height="120" as="geometry" />
        </mxCell>
        <mxCell id="4GUXSq08M1K6atCKZU_I-5" value="config_apply.py" style="ellipse;whiteSpace=wrap;html=1;aspect=fixed;" parent="1" vertex="1">
          <mxGeometry x="2710" y="390" width="120" height="120" as="geometry" />
        </mxCell>
        <mxCell id="4GUXSq08M1K6atCKZU_I-7" style="edgeStyle=orthogonalEdgeStyle;rounded=0;orthogonalLoop=1;jettySize=auto;html=1;entryX=0;entryY=0.5;entryDx=0;entryDy=0;entryPerimeter=0;" parent="1" source="4GUXSq08M1K6atCKZU_I-5" target="4GUXSq08M1K6atCKZU_I-2" edge="1">
          <mxGeometry relative="1" as="geometry" />
        </mxCell>
        <mxCell id="4GUXSq08M1K6atCKZU_I-20" style="edgeStyle=orthogonalEdgeStyle;rounded=0;orthogonalLoop=1;jettySize=auto;html=1;entryX=0;entryY=0.5;entryDx=0;entryDy=0;curved=1;" parent="1" source="4GUXSq08M1K6atCKZU_I-8" target="4GUXSq08M1K6atCKZU_I-19" edge="1">
          <mxGeometry relative="1" as="geometry" />
        </mxCell>
        <mxCell id="4GUXSq08M1K6atCKZU_I-8" value="settings.json" style="shape=note;whiteSpace=wrap;html=1;backgroundOutline=1;darkOpacity=0.05;" parent="1" vertex="1">
          <mxGeometry x="1690" y="1180" width="120" height="120" as="geometry" />
        </mxCell>
        <mxCell id="4GUXSq08M1K6atCKZU_I-9" value="solar_actuals.json&lt;br&gt;&lt;div style=&quot;background-color:#1e1f22;color:#bcbec4&quot;&gt;&lt;pre style=&quot;font-family:&#39;JetBrains Mono&#39;,monospace;font-size:9.8pt;&quot;&gt;&lt;div style=&quot;text-align: left;&quot;&gt;&lt;span style=&quot;font-size: 9.8pt; white-space: normal;&quot;&gt;{&lt;/span&gt;&lt;/div&gt;&lt;div style=&quot;text-align: left;&quot;&gt;&lt;span style=&quot;font-size: 9.8pt; white-space: normal;&quot;&gt;  &lt;/span&gt;&lt;span style=&quot;font-size: 9.8pt; white-space: normal; color: rgb(199, 125, 187);&quot;&gt;&quot;data&quot;&lt;/span&gt;&lt;span style=&quot;font-size: 9.8pt; white-space: normal;&quot;&gt;: {&lt;/span&gt;&lt;/div&gt;&lt;div style=&quot;text-align: left;&quot;&gt;&lt;span style=&quot;font-size: 9.8pt; white-space: normal; color: rgb(199, 125, 187);&quot;&gt;&amp;nbsp; &quot;0&quot;&lt;/span&gt;&lt;span style=&quot;font-size: 9.8pt; white-space: normal;&quot;&gt;: {&lt;/span&gt;&lt;/div&gt;&lt;div style=&quot;text-align: left;&quot;&gt;&lt;span style=&quot;font-size: 9.8pt; white-space: normal;&quot;&gt;&lt;/span&gt;&lt;span style=&quot;font-size: 9.8pt; white-space: normal; color: rgb(199, 125, 187);&quot;&gt;&amp;nbsp; &amp;nbsp; &quot;start_time&quot;&lt;/span&gt;&lt;span style=&quot;font-size: 9.8pt; white-space: normal;&quot;&gt;: &lt;/span&gt;&lt;span style=&quot;font-size: 9.8pt; white-space: normal; color: rgb(106, 171, 115);&quot;&gt;&quot;2025-06-14 01:00&quot;&lt;/span&gt;&lt;span style=&quot;font-size: 9.8pt; white-space: normal;&quot;&gt;,&lt;/span&gt;&lt;/div&gt;&lt;div style=&quot;text-align: left;&quot;&gt;&lt;span style=&quot;font-size: 9.8pt; white-space: normal;&quot;&gt;&lt;/span&gt;&lt;span style=&quot;font-size: 9.8pt; white-space: normal; color: rgb(199, 125, 187);&quot;&gt;&amp;nbsp; &amp;nbsp; &quot;end_time&quot;&lt;/span&gt;&lt;span style=&quot;font-size: 9.8pt; white-space: normal;&quot;&gt;: &lt;/span&gt;&lt;span style=&quot;font-size: 9.8pt; white-space: normal; color: rgb(106, 171, 115);&quot;&gt;&quot;2025-06-14 01:30&quot;&lt;/span&gt;&lt;span style=&quot;font-size: 9.8pt; white-space: normal;&quot;&gt;,&lt;/span&gt;&lt;/div&gt;&lt;div style=&quot;text-align: left;&quot;&gt;&lt;span style=&quot;font-size: 9.8pt; white-space: normal;&quot;&gt;&lt;/span&gt;&lt;span style=&quot;font-size: 9.8pt; white-space: normal; color: rgb(199, 125, 187);&quot;&gt;&amp;nbsp; &amp;nbsp; &quot;data&quot;&lt;/span&gt;&lt;span style=&quot;font-size: 9.8pt; white-space: normal;&quot;&gt;: {&lt;/span&gt;&lt;/div&gt;&lt;div style=&quot;text-align: left;&quot;&gt;&lt;span style=&quot;font-size: 9.8pt; white-space: normal;&quot;&gt;&lt;/span&gt;&lt;span style=&quot;font-size: 9.8pt; white-space: normal; color: rgb(199, 125, 187);&quot;&gt;&amp;nbsp; &amp;nbsp; &amp;nbsp; &quot;0&quot;&lt;/span&gt;&lt;span style=&quot;font-size: 9.8pt; white-space: normal;&quot;&gt;: &lt;/span&gt;&lt;span style=&quot;font-size: 9.8pt; white-space: normal; color: rgb(42, 172, 184);&quot;&gt;0&lt;/span&gt;&lt;span style=&quot;font-size: 9.8pt; white-space: normal;&quot;&gt;,&lt;/span&gt;&lt;/div&gt;&lt;div style=&quot;text-align: left;&quot;&gt;&lt;span style=&quot;font-size: 9.8pt; white-space: normal;&quot;&gt;&lt;/span&gt;&lt;span style=&quot;font-size: 9.8pt; white-space: normal; color: rgb(199, 125, 187);&quot;&gt;&amp;nbsp; &amp;nbsp; &amp;nbsp; &quot;1&quot;&lt;/span&gt;&lt;span style=&quot;font-size: 9.8pt; white-space: normal;&quot;&gt;: &lt;/span&gt;&lt;span style=&quot;font-size: 9.8pt; white-space: normal; color: rgb(42, 172, 184);&quot;&gt;0&lt;/span&gt;&lt;span style=&quot;font-size: 9.8pt; white-space: normal;&quot;&gt;,&lt;/span&gt;&lt;/div&gt;&lt;div style=&quot;text-align: left;&quot;&gt;&lt;span style=&quot;font-size: 9.8pt; white-space: normal;&quot;&gt;&lt;/span&gt;&lt;span style=&quot;font-size: 9.8pt; white-space: normal; color: rgb(199, 125, 187);&quot;&gt;&amp;nbsp; &amp;nbsp; &amp;nbsp; &quot;2&quot;&lt;/span&gt;&lt;span style=&quot;font-size: 9.8pt; white-space: normal;&quot;&gt;: &lt;/span&gt;&lt;span style=&quot;font-size: 9.8pt; white-space: normal; color: rgb(42, 172, 184);&quot;&gt;0&lt;/span&gt;&lt;/div&gt;&lt;span style=&quot;color:#2aacb8;&quot;&gt;&lt;div style=&quot;text-align: left;&quot;&gt;&lt;span style=&quot;font-size: 9.8pt; white-space: normal; color: rgb(42, 172, 184);&quot;&gt;&lt;/span&gt;&lt;span style=&quot;font-size: 9.8pt; color: rgb(188, 190, 196); white-space: normal;&quot;&gt;&amp;nbsp; &amp;nbsp; }&lt;/span&gt;&lt;/div&gt;&lt;/span&gt;&lt;div style=&quot;text-align: left;&quot;&gt;&lt;span style=&quot;font-size: 9.8pt; white-space: normal;&quot;&gt;&amp;nbsp; },&lt;/span&gt;&lt;/div&gt;&lt;/pre&gt;&lt;/div&gt;" style="shape=note;whiteSpace=wrap;html=1;backgroundOutline=1;darkOpacity=0.05;" parent="1" vertex="1">
          <mxGeometry x="530" y="870" width="330" height="270" as="geometry" />
        </mxCell>
        <mxCell id="4GUXSq08M1K6atCKZU_I-15" style="edgeStyle=orthogonalEdgeStyle;rounded=0;orthogonalLoop=1;jettySize=auto;html=1;curved=1;entryX=0;entryY=0.5;entryDx=0;entryDy=0;" parent="1" source="4GUXSq08M1K6atCKZU_I-11" target="4GUXSq08M1K6atCKZU_I-12" edge="1">
          <mxGeometry relative="1" as="geometry">
            <mxPoint x="1450" y="720" as="targetPoint" />
          </mxGeometry>
        </mxCell>
        <mxCell id="7y-IphuDkVkdrdwvFWoF-2" style="edgeStyle=orthogonalEdgeStyle;rounded=0;orthogonalLoop=1;jettySize=auto;html=1;entryX=0;entryY=0.5;entryDx=0;entryDy=0;curved=1;" edge="1" parent="1" source="4GUXSq08M1K6atCKZU_I-11" target="4GUXSq08M1K6atCKZU_I-19">
          <mxGeometry relative="1" as="geometry" />
        </mxCell>
        <mxCell id="4GUXSq08M1K6atCKZU_I-11" value="solar_forecast_history.json&lt;br&gt;&lt;br&gt;&lt;div style=&quot;background-color:#1e1f22;color:#bcbec4&quot;&gt;&lt;pre style=&quot;font-family:&#39;JetBrains Mono&#39;,monospace;font-size:9.8pt;&quot;&gt;&lt;div style=&quot;text-align: left;&quot;&gt;&lt;div&gt;&lt;pre style=&quot;font-family:&#39;JetBrains Mono&#39;,monospace;font-size:9.8pt;&quot;&gt;{&lt;br&gt;    &lt;span style=&quot;color:#c77dbb;&quot;&gt;&quot;2025-06-15&quot;&lt;/span&gt;: {&lt;br&gt;        &lt;span style=&quot;color:#c77dbb;&quot;&gt;&quot;00:00&quot;&lt;/span&gt;: {&lt;br&gt;            &lt;span style=&quot;color:#c77dbb;&quot;&gt;&quot;pv_estimate&quot;&lt;/span&gt;: &lt;span style=&quot;color:#2aacb8;&quot;&gt;0&lt;/span&gt;,&lt;br&gt;            &lt;span style=&quot;color:#c77dbb;&quot;&gt;&quot;pv_estimate10&quot;&lt;/span&gt;: &lt;span style=&quot;color:#2aacb8;&quot;&gt;0&lt;/span&gt;,&lt;br&gt;            &lt;span style=&quot;color:#c77dbb;&quot;&gt;&quot;pv_estimate90&quot;&lt;/span&gt;: &lt;span style=&quot;color:#2aacb8;&quot;&gt;0&lt;br&gt;&lt;/span&gt;&lt;span style=&quot;color:#2aacb8;&quot;&gt;        &lt;/span&gt;},&lt;/pre&gt;&lt;/div&gt;&lt;/div&gt;&lt;/pre&gt;&lt;/div&gt;&lt;div style=&quot;text-align: left;&quot;&gt;&lt;span style=&quot;color: rgba(0, 0, 0, 0); font-family: monospace; font-size: 0px; text-wrap-mode: nowrap;&quot;&gt;%3CmxGraphModel%3E%3Croot%3E%3CmxCell%20id%3D%220%22%2F%3E%3CmxCell%20id%3D%221%22%20parent%3D%220%22%2F%3E%3CmxCell%20id%3D%222%22%20value%3D%22crontab_file%22%20style%3D%22shape%3Dnote%3BwhiteSpace%3Dwrap%3Bhtml%3D1%3BbackgroundOutline%3D1%3BdarkOpacity%3D0.05%3B%22%20vertex%3D%221%22%20parent%3D%221%22%3E%3CmxGeometry%20x%3D%22270%22%20y%3D%221000%22%20width%3D%22120%22%20height%3D%22120%22%20as%3D%22geometry%22%2F%3E%3C%2FmxCell%3E%3C%2Froot%3E%3C%2FmxGraphModel%3E&lt;/span&gt;&lt;/div&gt;" style="shape=note;whiteSpace=wrap;html=1;backgroundOutline=1;darkOpacity=0.05;fillColor=#60a917;fontColor=#ffffff;strokeColor=#2D7600;" parent="1" vertex="1">
          <mxGeometry x="520" y="320" width="260" height="200" as="geometry" />
        </mxCell>
        <mxCell id="4GUXSq08M1K6atCKZU_I-12" value="calc_error.py" style="ellipse;whiteSpace=wrap;html=1;aspect=fixed;" parent="1" vertex="1">
          <mxGeometry x="1130" y="680" width="120" height="120" as="geometry" />
        </mxCell>
        <mxCell id="4GUXSq08M1K6atCKZU_I-13" style="edgeStyle=orthogonalEdgeStyle;rounded=0;orthogonalLoop=1;jettySize=auto;html=1;entryX=0;entryY=0.5;entryDx=0;entryDy=0;entryPerimeter=0;curved=1;exitX=1;exitY=0.5;exitDx=0;exitDy=0;" parent="1" source="4GUXSq08M1K6atCKZU_I-12" target="4GUXSq08M1K6atCKZU_I-8" edge="1">
          <mxGeometry relative="1" as="geometry" />
        </mxCell>
        <mxCell id="4GUXSq08M1K6atCKZU_I-18" value="&lt;div style=&quot;background-color:#1e1f22;color:#bcbec4&quot;&gt;&lt;pre style=&quot;font-family:&#39;JetBrains Mono&#39;,monospace;font-size:9.8pt;&quot;&gt;solar_forecast_multiplier&lt;/pre&gt;&lt;/div&gt;" style="edgeLabel;html=1;align=center;verticalAlign=middle;resizable=0;points=[];" parent="4GUXSq08M1K6atCKZU_I-13" vertex="1" connectable="0">
          <mxGeometry x="-0.0889" y="-6" relative="1" as="geometry">
            <mxPoint as="offset" />
          </mxGeometry>
        </mxCell>
        <mxCell id="4GUXSq08M1K6atCKZU_I-14" style="edgeStyle=orthogonalEdgeStyle;rounded=0;orthogonalLoop=1;jettySize=auto;html=1;entryX=0;entryY=0.5;entryDx=0;entryDy=0;curved=1;" parent="1" source="4GUXSq08M1K6atCKZU_I-9" target="4GUXSq08M1K6atCKZU_I-12" edge="1">
          <mxGeometry relative="1" as="geometry" />
        </mxCell>
        <mxCell id="4GUXSq08M1K6atCKZU_I-19" value="config_generate.py" style="ellipse;whiteSpace=wrap;html=1;aspect=fixed;fillColor=#60a917;fontColor=#ffffff;strokeColor=#2D7600;" parent="1" vertex="1">
          <mxGeometry x="2200" y="400" width="120" height="120" as="geometry" />
        </mxCell>
        <mxCell id="4GUXSq08M1K6atCKZU_I-22" value="usage_actuals.json&lt;br&gt;&lt;br&gt;&lt;div style=&quot;background-color:#1e1f22;color:#bcbec4&quot;&gt;&lt;pre style=&quot;font-family:&#39;JetBrains Mono&#39;,monospace;font-size:9.8pt;&quot;&gt;&lt;div style=&quot;text-align: left;&quot;&gt;&lt;pre style=&quot;font-family:&#39;JetBrains Mono&#39;,monospace;font-size:9.8pt;&quot;&gt;&lt;div&gt;&lt;pre style=&quot;font-family:&#39;JetBrains Mono&#39;,monospace;font-size:9.8pt;&quot;&gt;{&lt;br&gt;    &lt;span style=&quot;color:#c77dbb;&quot;&gt;&quot;2025-05-18&quot;&lt;/span&gt;: {&lt;br&gt;        &lt;span style=&quot;color:#c77dbb;&quot;&gt;&quot;00:00&quot;&lt;/span&gt;: &lt;span style=&quot;color:#2aacb8;&quot;&gt;0.09448414853161978&lt;/span&gt;,&lt;br&gt;        &lt;span style=&quot;color:#c77dbb;&quot;&gt;&quot;00:30&quot;&lt;/span&gt;: &lt;span style=&quot;color:#2aacb8;&quot;&gt;0.048868912199661003&lt;/span&gt;,&lt;/pre&gt;&lt;/div&gt;&lt;/pre&gt;&lt;/div&gt;&lt;/pre&gt;&lt;/div&gt;" style="shape=note;whiteSpace=wrap;html=1;backgroundOutline=1;darkOpacity=0.05;" parent="1" vertex="1">
          <mxGeometry x="990" y="1140" width="330" height="180" as="geometry" />
        </mxCell>
        <mxCell id="4GUXSq08M1K6atCKZU_I-25" style="edgeStyle=orthogonalEdgeStyle;shape=connector;curved=1;rounded=0;orthogonalLoop=1;jettySize=auto;html=1;entryX=0;entryY=0.5;entryDx=0;entryDy=0;strokeColor=default;align=center;verticalAlign=middle;fontFamily=Helvetica;fontSize=11;fontColor=default;labelBackgroundColor=default;endArrow=classic;" parent="1" source="4GUXSq08M1K6atCKZU_I-23" target="4GUXSq08M1K6atCKZU_I-19" edge="1">
          <mxGeometry relative="1" as="geometry" />
        </mxCell>
        <mxCell id="4GUXSq08M1K6atCKZU_I-23" value="usage_forecast.json&lt;br&gt;&lt;br&gt;&lt;div style=&quot;background-color:#1e1f22;color:#bcbec4&quot;&gt;&lt;pre style=&quot;font-family:&#39;JetBrains Mono&#39;,monospace;font-size:9.8pt;&quot;&gt;&lt;div style=&quot;text-align: left;&quot;&gt;&lt;pre style=&quot;font-family:&#39;JetBrains Mono&#39;,monospace;font-size:9.8pt;&quot;&gt;&lt;pre style=&quot;font-family:&#39;JetBrains Mono&#39;,monospace;font-size:9.8pt;&quot;&gt;&lt;div&gt;&lt;pre style=&quot;font-family:&#39;JetBrains Mono&#39;,monospace;font-size:9.8pt;&quot;&gt;{&lt;br&gt;  &lt;span style=&quot;color:#c77dbb;&quot;&gt;&quot;2025-05-04&quot;&lt;/span&gt;: {&lt;br&gt;    &lt;span style=&quot;color:#c77dbb;&quot;&gt;&quot;early&quot;&lt;/span&gt;: &lt;span style=&quot;color:#2aacb8;&quot;&gt;1&lt;/span&gt;,&lt;br&gt;    &lt;span style=&quot;color:#c77dbb;&quot;&gt;&quot;day&quot;&lt;/span&gt;: &lt;span style=&quot;color:#2aacb8;&quot;&gt;5&lt;/span&gt;,&lt;br&gt;    &lt;span style=&quot;color:#c77dbb;&quot;&gt;&quot;peak&quot;&lt;/span&gt;: &lt;span style=&quot;color:#2aacb8;&quot;&gt;2&lt;/span&gt;,&lt;br&gt;    &lt;span style=&quot;color:#c77dbb;&quot;&gt;&quot;late&quot;&lt;/span&gt;: &lt;span style=&quot;color:#2aacb8;&quot;&gt;2&lt;br&gt;&lt;/span&gt;&lt;span style=&quot;color:#2aacb8;&quot;&gt;  &lt;/span&gt;},&lt;/pre&gt;&lt;/div&gt;&lt;/pre&gt;&lt;/pre&gt;&lt;/div&gt;&lt;/pre&gt;&lt;/div&gt;" style="shape=note;whiteSpace=wrap;html=1;backgroundOutline=1;darkOpacity=0.05;" parent="1" vertex="1">
          <mxGeometry x="1368" y="510" width="190" height="180" as="geometry" />
        </mxCell>
        <mxCell id="4GUXSq08M1K6atCKZU_I-26" style="edgeStyle=orthogonalEdgeStyle;shape=connector;curved=1;rounded=0;orthogonalLoop=1;jettySize=auto;html=1;strokeColor=default;align=center;verticalAlign=middle;fontFamily=Helvetica;fontSize=11;fontColor=default;labelBackgroundColor=default;endArrow=classic;entryX=0;entryY=0.5;entryDx=0;entryDy=0;" parent="1" source="4GUXSq08M1K6atCKZU_I-24" target="4GUXSq08M1K6atCKZU_I-19" edge="1">
          <mxGeometry relative="1" as="geometry">
            <mxPoint x="2180" y="610" as="targetPoint" />
          </mxGeometry>
        </mxCell>
        <mxCell id="4GUXSq08M1K6atCKZU_I-24" value="usage_baseline.json&lt;br&gt;&lt;br&gt;&lt;div style=&quot;background-color:#1e1f22;color:#bcbec4&quot;&gt;&lt;pre style=&quot;font-family:&#39;JetBrains Mono&#39;,monospace;font-size:9.8pt;&quot;&gt;&lt;div style=&quot;text-align: left;&quot;&gt;&lt;pre style=&quot;font-family:&#39;JetBrains Mono&#39;,monospace;font-size:9.8pt;&quot;&gt;&lt;pre style=&quot;font-family:&#39;JetBrains Mono&#39;,monospace;font-size:9.8pt;&quot;&gt;&lt;pre style=&quot;font-family:&#39;JetBrains Mono&#39;,monospace;font-size:9.8pt;&quot;&gt;&lt;pre style=&quot;font-family: &amp;quot;JetBrains Mono&amp;quot;, monospace; font-size: 9.8pt;&quot;&gt;{&lt;br&gt;  &lt;span style=&quot;color: rgb(199, 125, 187);&quot;&gt;&quot;Monday&quot;&lt;/span&gt;: {&lt;br&gt;    &lt;span style=&quot;color: rgb(199, 125, 187);&quot;&gt;&quot;early&quot;&lt;/span&gt;: &lt;span style=&quot;color: rgb(42, 172, 184);&quot;&gt;1&lt;/span&gt;,&lt;br&gt;    &lt;span style=&quot;color: rgb(199, 125, 187);&quot;&gt;&quot;day&quot;&lt;/span&gt;: &lt;span style=&quot;color: rgb(42, 172, 184);&quot;&gt;5&lt;/span&gt;,&lt;br&gt;    &lt;span style=&quot;color: rgb(199, 125, 187);&quot;&gt;&quot;peak&quot;&lt;/span&gt;: &lt;span style=&quot;color: rgb(42, 172, 184);&quot;&gt;2&lt;/span&gt;,&lt;br&gt;    &lt;span style=&quot;color: rgb(199, 125, 187);&quot;&gt;&quot;late&quot;&lt;/span&gt;: &lt;span style=&quot;color: rgb(42, 172, 184);&quot;&gt;2&lt;br&gt;&lt;div&gt;&lt;span style=&quot;font-size: 9.8pt; white-space: normal;&quot;&gt;&lt;/span&gt;&lt;span style=&quot;font-size: 9.8pt; color: rgb(188, 190, 196); white-space: normal;&quot;&gt;},&lt;/span&gt;&lt;/div&gt;&lt;/span&gt;&lt;/pre&gt;&lt;/pre&gt;&lt;/pre&gt;&lt;/pre&gt;&lt;/div&gt;&lt;/pre&gt;&lt;/div&gt;" style="shape=note;whiteSpace=wrap;html=1;backgroundOutline=1;darkOpacity=0.05;" parent="1" vertex="1">
          <mxGeometry x="1490" y="752" width="190" height="180" as="geometry" />
        </mxCell>
        <mxCell id="4GUXSq08M1K6atCKZU_I-27" value="&#xa;&lt;span style=&quot;color: rgb(255, 255, 255); font-family: Helvetica; font-size: 12px; font-style: normal; font-variant-ligatures: normal; font-variant-caps: normal; font-weight: 400; letter-spacing: normal; orphans: 2; text-align: left; text-indent: 0px; text-transform: none; widows: 2; word-spacing: 0px; -webkit-text-stroke-width: 0px; white-space: normal; background-color: rgb(27, 29, 30); text-decoration-thickness: initial; text-decoration-style: initial; text-decoration-color: initial; display: inline !important; float: none;&quot;&gt;charge to percentage&lt;/span&gt;&#xa;&#xa;" style="edgeStyle=orthogonalEdgeStyle;shape=connector;curved=1;rounded=0;orthogonalLoop=1;jettySize=auto;html=1;entryX=0;entryY=0.561;entryDx=0;entryDy=0;entryPerimeter=0;strokeColor=default;align=center;verticalAlign=middle;fontFamily=Helvetica;fontSize=11;fontColor=default;labelBackgroundColor=default;endArrow=classic;" parent="1" source="4GUXSq08M1K6atCKZU_I-19" target="4GUXSq08M1K6atCKZU_I-1" edge="1">
          <mxGeometry relative="1" as="geometry" />
        </mxCell>
        <mxCell id="4GUXSq08M1K6atCKZU_I-29" value="solar_actuals.py" style="ellipse;whiteSpace=wrap;html=1;aspect=fixed;" parent="1" vertex="1">
          <mxGeometry x="170" y="890" width="120" height="120" as="geometry" />
        </mxCell>
        <mxCell id="4GUXSq08M1K6atCKZU_I-30" style="edgeStyle=orthogonalEdgeStyle;shape=connector;curved=1;rounded=0;orthogonalLoop=1;jettySize=auto;html=1;entryX=0;entryY=0.5;entryDx=0;entryDy=0;entryPerimeter=0;strokeColor=default;align=center;verticalAlign=middle;fontFamily=Helvetica;fontSize=11;fontColor=default;labelBackgroundColor=default;endArrow=classic;" parent="1" source="4GUXSq08M1K6atCKZU_I-29" target="4GUXSq08M1K6atCKZU_I-9" edge="1">
          <mxGeometry relative="1" as="geometry" />
        </mxCell>
        <mxCell id="4GUXSq08M1K6atCKZU_I-31" value="solar&lt;br&gt;_forecast&lt;br&gt;_generator.py" style="ellipse;whiteSpace=wrap;html=1;aspect=fixed;fillColor=#60a917;fontColor=#ffffff;strokeColor=#2D7600;" parent="1" vertex="1">
          <mxGeometry x="150" y="540" width="120" height="120" as="geometry" />
        </mxCell>
        <mxCell id="4GUXSq08M1K6atCKZU_I-33" style="edgeStyle=orthogonalEdgeStyle;shape=connector;curved=1;rounded=0;orthogonalLoop=1;jettySize=auto;html=1;entryX=0;entryY=0.5;entryDx=0;entryDy=0;entryPerimeter=0;strokeColor=default;align=center;verticalAlign=middle;fontFamily=Helvetica;fontSize=11;fontColor=default;labelBackgroundColor=default;endArrow=classic;" parent="1" source="4GUXSq08M1K6atCKZU_I-31" target="4GUXSq08M1K6atCKZU_I-11" edge="1">
          <mxGeometry relative="1" as="geometry" />
        </mxCell>
        <mxCell id="4GUXSq08M1K6atCKZU_I-34" value="usage_acutals.py" style="ellipse;whiteSpace=wrap;html=1;aspect=fixed;" parent="1" vertex="1">
          <mxGeometry x="180" y="1180" width="120" height="120" as="geometry" />
        </mxCell>
        <mxCell id="4GUXSq08M1K6atCKZU_I-35" style="edgeStyle=orthogonalEdgeStyle;shape=connector;curved=1;rounded=0;orthogonalLoop=1;jettySize=auto;html=1;entryX=0;entryY=0.5;entryDx=0;entryDy=0;entryPerimeter=0;strokeColor=default;align=center;verticalAlign=middle;fontFamily=Helvetica;fontSize=11;fontColor=default;labelBackgroundColor=default;endArrow=classic;" parent="1" source="4GUXSq08M1K6atCKZU_I-34" target="4GUXSq08M1K6atCKZU_I-22" edge="1">
          <mxGeometry relative="1" as="geometry" />
        </mxCell>
        <mxCell id="4GUXSq08M1K6atCKZU_I-38" value="Change to Date/Half Hour/Object format" style="text;html=1;align=center;verticalAlign=middle;whiteSpace=wrap;rounded=0;fontFamily=Helvetica;fontSize=11;fontColor=default;labelBackgroundColor=default;" parent="1" vertex="1">
          <mxGeometry x="560" y="827" width="240" height="30" as="geometry" />
        </mxCell>
        <mxCell id="4GUXSq08M1K6atCKZU_I-39" value="Change to Date/Half Hour/Object format" style="text;html=1;align=center;verticalAlign=middle;whiteSpace=wrap;rounded=0;fontFamily=Helvetica;fontSize=11;fontColor=default;labelBackgroundColor=default;" parent="1" vertex="1">
          <mxGeometry x="1368" y="470" width="240" height="30" as="geometry" />
        </mxCell>
        <mxCell id="4GUXSq08M1K6atCKZU_I-40" value="Create file wrappers and inject them im" style="text;html=1;align=center;verticalAlign=middle;whiteSpace=wrap;rounded=0;fontFamily=Helvetica;fontSize=11;fontColor=default;labelBackgroundColor=default;" parent="1" vertex="1">
          <mxGeometry x="1035" y="630" width="240" height="30" as="geometry" />
        </mxCell>
        <mxCell id="4GUXSq08M1K6atCKZU_I-42" value="Half Hour/Object format" style="text;html=1;align=center;verticalAlign=middle;whiteSpace=wrap;rounded=0;fontFamily=Helvetica;fontSize=11;fontColor=default;labelBackgroundColor=default;" parent="1" vertex="1">
          <mxGeometry x="1490" y="722" width="240" height="30" as="geometry" />
        </mxCell>
        <mxCell id="4GUXSq08M1K6atCKZU_I-43" value="Create file wrappers and inject them im" style="text;html=1;align=center;verticalAlign=middle;whiteSpace=wrap;rounded=0;fontFamily=Helvetica;fontSize=11;fontColor=default;labelBackgroundColor=default;" parent="1" vertex="1">
          <mxGeometry x="2140" y="350" width="240" height="30" as="geometry" />
        </mxCell>
      </root>
    </mxGraphModel>
  </diagram>
</mxfile>
